HIERARCHY
ROOT Hips
{
	OFFSET -3.958830 18.904000 13.208200
	CHANNELS 6 Xposition Yposition Zposition Zrotation Yrotation Xrotation 
	JOINT LHipJoint
	{
		OFFSET 0.000000 0.000000 0.000000
		CHANNELS 3 Zrotation Yrotation Xrotation
		JOINT LeftUpLeg
		{
			OFFSET 1.800000 -1.400000 0.085000
			CHANNELS 3 Zrotation Yrotation Xrotation
			JOINT LeftLeg
			{
				OFFSET 2.215000 -6.000000 0.000000
				CHANNELS 3 Zrotation Yrotation Xrotation
				JOINT LeftFoot
				{
					OFFSET 2.500000 -6.900000 0.000000
					CHANNELS 3 Zrotation Yrotation Xrotation
					JOINT LeftToeBase
					{
						OFFSET 0.200000 -0.500000 1.950000
						CHANNELS 3 Zrotation Yrotation Xrotation
						End Site
						{
							OFFSET 0.000000 0.000000 0.000000
						}
					}
				}
			}
		}
	}
	JOINT RHipJoint
	{
		OFFSET 0.000000 0.000000 0.000000
		CHANNELS 3 Zrotation Yrotation Xrotation
		JOINT RightUpLeg
		{
			OFFSET -1.800000 -1.400000 0.085000
			CHANNELS 3 Zrotation Yrotation Xrotation
			JOINT RightLeg
			{
				OFFSET -2.215000 -6.000000 0.000000
				CHANNELS 3 Zrotation Yrotation Xrotation
				JOINT RightFoot
				{
					OFFSET -2.500000 -6.900000 0.000000
					CHANNELS 3 Zrotation Yrotation Xrotation
					JOINT RightToeBase
					{
						OFFSET -0.200000 -0.500000 1.950000
						CHANNELS 3 Zrotation Yrotation Xrotation
						End Site
						{
							OFFSET 0.000000 0.000000 0.000000
						}
					}
				}
			}
		}
	}
	JOINT LowerBack
	{
		OFFSET 0.000000 0.000000 0.000000
		CHANNELS 3 Zrotation Yrotation Xrotation
		JOINT Spine
		{
			OFFSET -0.087000 1.940000 -0.288900
			CHANNELS 3 Zrotation Yrotation Xrotation
			JOINT Spine1
			{
				OFFSET 0.000000 1.950000 0.060000
				CHANNELS 3 Zrotation Yrotation Xrotation
				JOINT Neck
				{
					OFFSET 0.000000 0.000000 0.000000
					CHANNELS 3 Zrotation Yrotation Xrotation
					JOINT Neck1
					{
						OFFSET 0.000000 1.600000 0.340000
						CHANNELS 3 Zrotation Yrotation Xrotation
						JOINT Head
						{
							OFFSET 0.000000 1.667000 -0.240000
							CHANNELS 3 Zrotation Yrotation Xrotation
							End Site
							{
								OFFSET 0.000000 0.000000 0.000000
							}
						}
					}
				}
				JOINT LeftShoulder
				{
					OFFSET 0.000000 0.000000 0.000000
					CHANNELS 3 Zrotation Yrotation Xrotation
					JOINT LeftArm
					{
						OFFSET 2.700000 1.550000 -0.730000
						CHANNELS 3 Zrotation Yrotation Xrotation
						JOINT LeftForeArm
						{
							OFFSET 5.450000 0.000000 0.000000
							CHANNELS 3 Zrotation Yrotation Xrotation
							JOINT LeftHand
							{
								OFFSET 3.450000 0.000000 0.000000
								CHANNELS 3 Zrotation Yrotation Xrotation
								JOINT LeftHandIndex1
								{
									OFFSET 0.750000 0.000000 0.000000
									CHANNELS 3 Zrotation Yrotation Xrotation
									End Site
									{
										OFFSET 0.000000 0.000000 0.000000
									}
								}
							}
						}
					}
				}
				JOINT RightShoulder
				{
					OFFSET 0.000000 0.000000 0.000000
					CHANNELS 3 Zrotation Yrotation Xrotation
					JOINT RightArm
					{
						OFFSET -2.700000 1.550000 -0.730000
						CHANNELS 3 Zrotation Yrotation Xrotation
						JOINT RightForeArm
						{
							OFFSET -5.450000 0.000000 0.000000
							CHANNELS 3 Zrotation Yrotation Xrotation
							JOINT RightHand
							{
								OFFSET -3.450000 0.000000 0.000000
								CHANNELS 3 Zrotation Yrotation Xrotation
								JOINT RightHandIndex1
								{
									OFFSET -0.750000 0.000000 0.000000
									CHANNELS 3 Zrotation Yrotation Xrotation
									End Site
									{
										OFFSET 0.000000 0.000000 0.000000
									}
								}
							}
						}
					}
				}
			}
		}
	}
}
MOTION
Frames: 13
Frame Time: 0.016667
-1.017720 14.497260 -4.563920 -48.893291 6.074659 16.082024 -15.650227 10.001680 5.272196 -1.038979 -14.774873 -48.022436 -1.467515 14.345972 70.976628 1.159578 12.965487 0.104721 1.114360 0.837500 1.332570 18.659940 -7.007417 4.998661 20.640954 17.104329 -38.748333 -36.683272 12.768527 53.965615 -2.079238 -9.904200 0.899374 0.458370 -0.075500 0.615340 -3.382245 -2.399264 -9.617941 13.195172 0.427777 65.202921 1.659249 6.609583 26.931935 1.237735 4.078076 -8.154026 4.834600 1.768611 39.976340 -11.575970 11.353000 -14.671750 3.667344 -22.163174 -1.289597 8.750032 -35.674134 -1.253272 5.339088 5.288873 -1.849109 -4.609445 2.619042 0.380540 0.324580 0.263250 -0.027020 -8.849941 20.968830 9.055061 29.538461 15.761932 -5.810210 -31.523181 9.707874 -6.255431 2.167288 -2.144429 0.183620 -0.078170 -0.392570 -0.388170 
-1.042130 14.482890 -4.566110 -49.007737 6.664643 15.955169 -15.642344 9.948664 5.326967 -0.938926 -15.241041 -48.135408 -0.406587 14.080546 73.244158 1.235384 13.259526 0.029658 1.107040 0.821760 1.335230 18.674677 -7.026704 4.955274 20.823610 16.889104 -38.644037 -37.108735 12.980153 54.778719 -2.134657 -10.106420 0.859622 0.440240 -0.076240 0.600810 -3.410487 -2.337485 -9.649235 13.669893 -0.203019 64.951677 1.369085 6.255677 26.530434 1.276595 4.124330 -8.215313 4.883286 1.751160 40.737898 -11.432220 11.343190 -14.930060 3.439012 -22.099327 -1.142865 8.764543 -35.505215 -1.148363 5.081517 5.113432 -1.827964 -4.587451 2.595079 0.401680 0.311020 0.264040 -0.032320 -8.476476 20.604712 8.903396 29.905584 15.916203 -5.694620 -31.586273 9.825790 -6.217500 2.163701 -2.105674 0.175760 -0.063010 -0.386100 -0.393660 
-1.073120 14.465340 -4.583680 -48.856232 6.361632 16.051693 -15.656588 9.937271 5.339745 -0.746788 -15.340947 -48.233349 -0.100030 14.325832 74.482593 1.302266 13.510317 -0.019352 1.099860 0.823370 1.322710 18.667474 -7.014269 4.923345 20.774595 16.834450 -38.462396 -38.028308 13.614686 55.354564 -2.195789 -10.386843 0.798088 0.446950 -0.036730 0.590940 -3.383975 -2.377144 -9.651776 12.922907 0.338007 64.343382 1.721740 6.277922 26.646938 0.955334 4.317590 -8.037731 5.362502 1.904614 40.177440 -10.903560 11.516280 -14.542060 3.908289 -21.592961 -1.078427 8.237652 -35.547529 -0.771547 5.063462 5.286664 -1.840419 -4.612164 2.587370 0.377680 0.333550 0.242140 -0.020980 -8.337182 20.152740 8.596881 30.599890 16.653371 -5.587612 -32.455937 9.067566 -6.330966 2.168724 -2.119057 0.165390 -0.034310 -0.381270 -0.381550 
-1.096840 14.434050 -4.610690 -49.567230 5.910106 16.195831 -15.632016 9.896418 5.277959 -0.600147 -14.949014 -48.430929 1.471197 13.551829 75.503099 1.312292 13.537403 -0.001605 1.089900 0.826580 1.282950 18.699419 -7.040843 4.968655 21.793660 16.977170 -37.556992 -39.846711 14.616225 55.337966 -2.287413 -10.727275 0.738052 0.457320 0.008290 0.571610 -3.469112 -2.208493 -9.658213 13.415875 0.250720 63.488606 1.604345 6.321407 26.565222 0.656618 4.374513 -7.907317 5.544364 2.023435 39.939117 -10.102010 11.424990 -13.962580 4.355904 -21.200333 -0.828137 7.336893 -35.624325 -0.213232 4.923140 5.280575 -1.815379 -4.611841 2.585563 0.358340 0.350960 0.217500 0.010040 -8.158946 19.674730 8.094033 31.347704 17.184692 -6.678081 -35.416097 10.079611 -7.468162 2.135829 -2.157322 0.148450 0.001790 -0.381000 -0.361400 
-1.126130 14.452020 -4.620110 -49.599377 5.325098 16.365212 -15.672645 10.022199 5.216285 -1.012681 -14.543011 -48.392598 3.006040 12.724693 75.973961 1.275013 13.467736 0.005910 1.098330 0.839860 1.291600 18.657696 -7.018457 4.941289 23.456781 16.606991 -35.219266 -43.843645 16.231314 53.051811 -2.399858 -11.015413 0.662744 0.475670 0.000350 0.557220 -3.359257 -2.442291 -9.629836 12.074490 1.738072 63.192233 2.939408 7.032015 26.613121 0.024839 4.964853 -7.626123 6.531578 1.977536 39.771440 -9.460840 11.737700 -14.461070 5.162395 -20.750912 -0.854146 6.305777 -36.274978 0.326859 5.014021 5.690550 -1.843449 -4.596327 2.591034 0.372280 0.338530 0.222640 0.005410 -8.067897 19.358745 7.695049 32.100078 17.309175 -8.722114 -39.735210 12.885206 -9.627102 2.077721 -2.183157 0.134730 0.015670 -0.382000 -0.370230 
-1.120600 14.514530 -4.631990 -49.083072 4.304563 16.839649 -15.697788 10.218009 5.194375 -1.515181 -14.106137 -48.127021 3.367846 12.398422 74.790455 1.164976 13.224040 0.057028 1.123540 0.869950 1.293020 18.600721 -7.157578 4.777936 23.836508 15.517324 -32.486701 -45.661697 16.501829 50.186287 -2.386547 -10.766704 0.738063 0.511720 -0.003230 0.524360 -3.263168 -2.607416 -9.524240 10.047586 3.567103 63.071229 4.219440 7.774374 27.234771 -1.008550 5.407533 -7.731121 7.249415 2.068653 39.976085 -7.968130 11.680450 -15.532270 6.480630 -21.020628 -0.409206 6.063904 -35.425598 0.571190 5.080498 5.610000 -1.872925 -4.555289 2.540917 0.421360 0.305270 0.235440 0.016450 -7.749883 20.055484 7.542257 32.194076 17.628142 -10.815496 -43.386621 15.212582 -11.793644 2.017538 -2.177514 0.102670 0.066650 -0.383010 -0.379800 
-1.102940 14.594110 -4.656920 -48.776245 4.194158 17.886490 -15.689302 10.276648 5.281111 -1.621286 -14.100222 -48.739739 3.613222 11.919502 73.473801 1.063790 12.934945 0.129539 1.109700 0.843750 1.274820 18.582485 -7.350694 4.591953 23.644089 14.352052 -30.638161 -45.745202 16.182119 48.885327 -2.335422 -10.495064 0.819006 0.503650 -0.001100 0.488730 -3.260392 -2.523161 -9.458309 9.263250 4.309323 62.587045 4.555099 8.128783 27.636762 -1.644792 5.836809 -8.439823 8.013465 1.813313 41.100534 -6.254600 11.343600 -15.819100 7.671442 -22.306088 0.457221 6.803303 -33.409040 0.286111 5.181432 5.379853 -1.888392 -4.522519 2.469758 0.467440 0.267950 0.231980 0.010440 -7.715934 21.380213 7.812045 33.113695 17.421624 -12.917677 -46.113036 18.484564 -14.151204 1.968568 -2.141432 0.070980 0.100210 -0.366190 -0.386950 
-1.059880 14.736210 -4.681040 -46.376430 4.170448 19.655418 -15.786994 10.532089 5.590945 -3.331580 -15.258610 -49.514405 3.069949 11.585400 70.905562 0.972283 12.388443 0.263737 1.124420 0.863500 1.276870 18.440619 -7.545657 4.119405 20.507301 12.311221 -29.473615 -43.581205 14.895603 47.605426 -2.196169 -9.818279 0.993903 0.489470 -0.064130 0.471450 -2.939737 -3.046763 -9.338848 5.580581 6.812175 62.388881 6.466293 8.537043 28.217426 -2.579798 6.470398 -9.896000 8.995272 1.390454 43.051566 -4.890890 11.219720 -17.171020 8.564384 -24.899366 1.534226 8.560603 -29.704321 -0.651334 5.304132 5.404421 -1.890647 -4.455253 2.390073 0.530670 0.190200 0.287200 0.004640 -7.032046 24.446554 8.610425 32.630134 16.742974 -15.887128 -48.936578 20.694242 -16.440698 1.978401 -2.131109 0.087210 0.090740 -0.379750 -0.387620 
-0.985930 14.860690 -4.704330 -45.101518 3.888000 21.266896 -15.808169 10.718180 5.824858 -4.955072 -15.969227 -49.932337 3.531903 10.662835 68.778334 0.883809 11.791176 0.413902 1.157280 0.903160 1.287750 18.368849 -7.844166 3.715089 18.210071 10.393583 -27.684479 -40.694918 12.975521 45.199420 -2.000718 -8.833755 1.257419 0.481530 -0.147940 0.458330 -2.831947 -3.178956 -9.223074 3.845184 8.023702 62.836978 7.244139 8.738650 28.235859 -3.396799 6.254940 -11.019262 8.336305 1.308267 45.231877 -3.664770 10.795490 -19.086520 8.924536 -26.642526 2.241290 10.008590 -27.013472 -1.332348 5.327834 5.182160 -1.849263 -4.350153 2.346514 0.597540 0.094570 0.359890 0.007210 -5.882549 26.740443 8.866036 31.355567 16.938153 -18.833956 -52.301808 23.713908 -19.407751 1.998809 -2.098939 0.117790 0.073270 -0.408410 -0.383570 
-0.934760 15.003670 -4.747610 -42.774343 3.898574 23.985967 -15.920515 10.862429 6.200428 -7.142517 -17.388915 -51.559576 4.125892 9.344389 65.156074 0.753836 10.885558 0.685864 1.178250 0.915170 1.327660 18.248659 -7.933651 3.276399 15.510543 8.678848 -27.355248 -37.295093 11.023524 43.149815 -1.767403 -7.882743 1.513565 0.465340 -0.206960 0.450050 -2.522336 -3.721468 -9.145204 0.163131 10.398318 62.157842 9.282432 8.900184 28.050214 -4.231334 6.436414 -11.794442 8.659804 1.526946 45.686701 -3.176760 11.306350 -19.656000 10.212536 -27.469465 2.439375 10.698576 -25.231550 -1.501945 5.232492 5.308241 -1.776723 -4.289137 2.339970 0.608670 0.041760 0.394600 0.003470 -5.588372 28.196246 8.993404 29.893648 17.846343 -20.399728 -53.456861 26.742552 -21.573665 2.026879 -2.079156 0.145220 0.036200 -0.448970 -0.386490 
-0.879650 15.129480 -4.792070 -42.987259 2.549782 26.338499 -15.911194 10.907667 6.293957 -6.861150 -16.846362 -53.669061 3.514474 9.412161 62.186134 0.630911 10.310728 0.835140 1.182170 0.931280 1.315940 18.232804 -8.074730 3.155594 15.330900 7.918629 -25.851782 -34.287793 9.357271 40.146594 -1.536337 -6.913499 1.809137 0.466730 -0.241240 0.420390 -2.524209 -3.637976 -9.077843 -1.372666 11.987479 61.567019 9.644156 9.829077 27.816691 -4.900005 5.801064 -12.157565 7.505062 2.318021 46.208142 -2.117760 11.498720 -20.113070 10.800769 -27.482495 2.714794 11.479121 -24.124597 -1.726567 5.640853 5.109538 -1.693952 -4.243453 2.350339 0.610600 0.002400 0.400910 -0.000330 -4.895973 29.337724 8.811955 27.847188 19.383360 -21.597593 -54.205194 30.034499 -23.582613 2.037430 -2.030032 0.154790 0.022130 -0.461580 -0.381830 
-0.816930 15.248120 -4.806920 -42.621685 1.089878 27.955482 -15.923751 11.100034 6.381872 -7.011937 -16.347341 -54.906197 2.830653 9.461957 59.354028 0.562460 9.721953 1.000328 1.246320 1.023050 1.346640 18.176959 -8.278215 2.921017 14.841526 6.428546 -22.848424 -31.320262 7.652303 36.749816 -1.378087 -5.978588 2.096446 0.481690 -0.301560 0.432770 -2.438733 -3.772239 -8.951950 -3.530596 13.933551 61.580713 10.337686 10.724982 27.848327 -5.365516 4.993785 -12.474310 5.835569 2.933989 46.899917 -1.668700 11.440630 -21.826770 10.712232 -27.832726 2.659519 12.643622 -23.189762 -2.401355 6.258124 5.429063 -1.672029 -4.193487 2.373244 0.619310 -0.055250 0.471060 0.026790 -3.992730 31.127131 8.700311 24.452676 20.514765 -23.271550 -54.678763 33.234435 -25.333363 2.097804 -2.007720 0.217420 -0.001150 -0.519360 -0.351880 
-0.762310 15.391700 -4.843680 -40.663922 0.666923 30.434139 -16.006987 11.237464 6.683100 -7.591618 -17.132264 -57.063254 1.562580 9.505204 56.031643 0.477920 9.041809 1.200461 1.282280 1.048190 1.391250 18.082847 -8.364431 2.569423 13.245726 4.857280 -20.745239 -27.128790 5.846439 35.603639 -1.252440 -5.270300 2.307140 0.461650 -0.383330 0.439320 -2.202746 -4.232154 -8.893010 -6.612752 16.047287 61.437905 11.794043 10.994108 26.976616 -5.580354 4.265653 -13.103665 4.326135 3.517155 48.048482 -1.441030 11.487440 -23.792510 10.760666 -28.589775 2.519031 14.044841 -21.748593 -3.038082 6.682569 5.414146 -1.628175 -4.118131 2.374394 0.663900 -0.134370 0.539760 0.028860 -3.258979 33.065517 8.613253 21.178041 21.692792 -24.837599 -55.582122 35.685894 -26.789716 2.206032 -1.974214 0.257750 -0.036850 -0.561520 -0.352840 
